<svg width="34" height="34" viewBox="0 0 34 34" fill="none" xmlns="http://www.w3.org/2000/svg">
<path d="M25.789 8.16287C23.4572 5.82962 20.3561 4.54329 17.0525 4.54187C10.2425 4.54187 4.70195 10.0796 4.70054 16.8867C4.6977 19.0528 5.26579 21.182 6.34812 23.0591L4.5957 29.4568L11.1435 27.7398C12.9555 28.7258 14.9841 29.2429 17.0468 29.2429H17.0525C23.8595 29.2429 29.4001 23.7037 29.4029 16.8966C29.4044 13.5986 28.1209 10.4975 25.789 8.16287Z" stroke="#9C9C9C" stroke-width="1.5" stroke-linecap="round" stroke-linejoin="round"/>
<path d="M18.5513 19.21L19.1264 18.6391C19.6549 18.1149 20.4907 18.0483 21.0999 18.4762C21.6892 18.8898 22.2219 19.261 22.7177 19.6067C23.5054 20.1535 23.6003 21.2755 22.9217 21.9527L22.4131 22.4612" stroke="#9C9C9C" stroke-width="1.5" stroke-linecap="round" stroke-linejoin="round"/>
<path d="M11.5388 11.5869L12.0474 11.0783C12.7246 10.4012 13.8466 10.4961 14.3934 11.2823C14.7377 11.7782 15.1088 12.3108 15.5239 12.9002C15.9517 13.5093 15.8866 14.3452 15.361 14.8736L14.7901 15.4488" stroke="#9C9C9C" stroke-width="1.5" stroke-linecap="round" stroke-linejoin="round"/>
<path d="M22.4133 22.4613C20.3152 24.5494 16.7891 22.7758 14.0054 19.9906" stroke="#9C9C9C" stroke-width="1.5" stroke-linecap="round" stroke-linejoin="round"/>
<path d="M14.0081 19.9948C11.2243 17.2097 9.45068 13.685 11.5388 11.5869" stroke="#9C9C9C" stroke-width="1.5" stroke-linecap="round" stroke-linejoin="round"/>
<path d="M14.79 15.4489C15.242 16.1614 15.8214 16.8669 16.4759 17.5214L16.4787 17.5243C17.1332 18.1788 17.8387 18.7582 18.5513 19.2101" stroke="#9C9C9C" stroke-width="1.5" stroke-linecap="round" stroke-linejoin="round"/>
</svg>
