<svg width="40" height="40" viewBox="0 0 40 40" fill="none" xmlns="http://www.w3.org/2000/svg">
<rect width="40" height="40" fill="#E5E5E5"/>
<rect width="1440" height="3157" transform="translate(-135 -3002)" fill="white"/>
<rect x="-135" y="-41" width="1440" height="196" fill="#FAFAFA"/>
<path fill-rule="evenodd" clip-rule="evenodd" d="M19.7345 0C30.6336 0 39.4691 8.95431 39.4691 20C39.4691 31.0457 30.6336 40 19.7345 40C8.83545 40 0 31.0457 0 20C0 8.95431 8.83545 0 19.7345 0Z" fill="#D3DD12"/>
<path fill-rule="evenodd" clip-rule="evenodd" d="M0.0138781 20.7537C5.87012 21.7166 11.3286 23.8817 16.1349 26.9909C17.3602 26.2794 18.6204 25.6227 19.9123 25.0241C14.1701 20.9215 7.47224 18.1009 0.224108 16.9729C0.0765245 17.959 0 18.9688 0 19.9967C0 20.2502 0.00465081 20.5025 0.0138781 20.7537Z" fill="#5F903B"/>
<path fill-rule="evenodd" clip-rule="evenodd" d="M16.1432 26.9863C11.3303 23.881 5.86429 21.7186 0 20.7568C0.0453069 21.9875 0.200767 23.1897 0.456714 24.3537C4.91589 25.206 9.11024 26.8155 12.9039 29.0451C13.9535 28.3158 15.0341 27.6287 16.1432 26.9863Z" fill="#ACC833"/>
<path fill-rule="evenodd" clip-rule="evenodd" d="M12.9075 29.0505C9.11437 26.8215 4.92073 25.2124 0.46225 24.3604C0.728659 25.5717 1.10393 26.7416 1.57717 27.859C4.59242 28.589 7.46165 29.6986 10.1326 31.1351C11.0309 30.4067 11.9565 29.7113 12.9075 29.0505Z" fill="#5F903B"/>
<path fill-rule="evenodd" clip-rule="evenodd" d="M10.1339 31.1374C7.46967 29.6985 4.6077 28.5871 1.60008 27.856C2.68973 30.4396 4.30005 32.7432 6.29712 34.6307C7.51113 33.3964 8.79206 32.2299 10.1339 31.1374Z" fill="#ACC833"/>
<path fill-rule="evenodd" clip-rule="evenodd" d="M9.77416 37.2613C17.2929 29.8575 27.5205 25.259 38.8084 25.135C39.1021 24.0117 39.3016 22.8496 39.398 21.6579C39.3574 21.6578 39.3173 21.6577 39.2767 21.6577C26.6469 21.6577 15.2124 26.8392 6.93378 35.2171C7.81678 35.9794 8.76699 36.6642 9.77416 37.2613Z" fill="#5F903B"/>
<path fill-rule="evenodd" clip-rule="evenodd" d="M38.829 25.1172C27.5348 25.2414 17.3014 29.8493 9.77838 37.2685C10.8951 37.9312 12.0818 38.4862 13.3245 38.919C19.7709 33.0057 28.1892 29.2617 37.4594 28.8225C38.0308 27.6478 38.492 26.4081 38.829 25.1172Z" fill="#ACC833"/>
<path fill-rule="evenodd" clip-rule="evenodd" d="M37.4423 28.8289C28.1823 29.2672 19.7734 33.0037 13.3342 38.9053C14.4176 39.2822 15.5437 39.5662 16.7031 39.7478C21.9823 35.4095 28.5022 32.5605 35.6399 31.8318C36.3236 30.8904 36.9278 29.886 37.4423 28.8289Z" fill="#5F903B"/>
<path fill-rule="evenodd" clip-rule="evenodd" d="M35.6289 31.856C28.4854 32.5839 21.9601 35.4303 16.6766 39.7644C17.6682 39.9197 18.6843 40.0001 19.7189 40.0001C20.6153 40.0001 21.4978 39.9396 22.3625 39.8224C25.1993 38.0761 28.321 36.7558 31.6406 35.9495C33.1563 34.7862 34.5008 33.4066 35.6289 31.856Z" fill="#ACC833"/>
<path fill-rule="evenodd" clip-rule="evenodd" d="M31.6464 35.928C28.3259 36.7381 25.2034 38.0649 22.3658 39.8199C25.8226 39.35 28.9963 37.9712 31.6464 35.928Z" fill="#5F903B"/>
<path fill-rule="evenodd" clip-rule="evenodd" d="M24.4282 16.5224C24.4282 13.9053 22.3268 11.7837 19.7345 11.7837C17.1423 11.7837 15.0409 13.9053 15.0409 16.5224C15.0409 19.1396 17.1423 21.2612 19.7345 21.2612C22.3268 21.2612 24.4282 19.1396 24.4282 16.5224Z" fill="#FAD703"/>
<path fill-rule="evenodd" clip-rule="evenodd" d="M24.4154 16.5226C24.4154 19.1482 22.3197 21.2767 19.7346 21.2767C17.1494 21.2767 15.0538 19.1482 15.0538 16.5226C15.0538 13.8969 17.1494 11.7684 19.7346 11.7684C22.3197 11.7684 24.4154 13.8969 24.4154 16.5226ZM12.8427 20.861C15.1825 21.9734 17.4163 23.2777 19.5243 24.7541C19.5942 24.7559 19.6643 24.7568 19.7346 24.7568C24.212 24.7568 27.8417 21.0702 27.8417 16.5226C27.8417 11.9749 24.212 8.28833 19.7346 8.28833C15.2571 8.28833 11.6274 11.9749 11.6274 16.5226C11.6274 18.1147 12.0723 19.6013 12.8427 20.861Z" fill="#CBDC58"/>
<path fill-rule="evenodd" clip-rule="evenodd" d="M27.8563 16.5183C27.8563 21.0688 24.2211 24.7577 19.7369 24.7577C19.6665 24.7577 19.5963 24.7568 19.5263 24.755C19.6587 24.8476 19.7905 24.9409 19.9219 25.0349C18.6297 25.6343 17.3693 26.2919 16.1438 27.0044C15.7097 27.2568 15.28 27.516 14.8548 27.782C14.1949 28.1948 13.5459 28.6239 12.9083 29.0686C11.9583 29.7313 11.0337 30.4288 10.1363 31.1593C8.79245 32.2533 7.50956 33.4212 6.2937 34.6571C6.50548 34.8572 6.7216 35.0527 6.94192 35.2433C9.61301 32.534 12.6127 30.1583 15.8751 28.1829C20.2635 25.5258 25.1274 23.5931 30.3063 22.5478C31.2954 20.766 31.8597 18.7091 31.8597 16.5183C31.8597 9.72413 26.4321 4.21631 19.7369 4.21631C13.0417 4.21631 7.6141 9.72413 7.6141 16.5183C7.6141 17.3095 7.68771 18.0833 7.82834 18.8329C9.54357 19.4123 11.2145 20.09 12.8347 20.8595C12.0631 19.5989 11.6175 18.1114 11.6175 16.5183C11.6175 11.9678 15.2527 8.27894 19.7369 8.27894C24.2211 8.27894 27.8563 11.9678 27.8563 16.5183Z" fill="#A0C93C"/>
<path fill-rule="evenodd" clip-rule="evenodd" d="M31.8582 16.5322C31.8582 18.7218 31.2936 20.7778 30.304 22.5586C33.2072 21.9731 36.2093 21.6661 39.2822 21.6661C39.3227 21.6661 39.3633 21.6661 39.4034 21.6662C39.4475 21.1209 39.4699 20.5694 39.4699 20.0126C39.4699 8.95996 30.6321 0 19.7299 0C9.84263 0 1.65311 7.36959 0.214203 16.9862C2.82588 17.3927 5.36613 18.0189 7.81609 18.8456C7.67535 18.0964 7.60171 17.323 7.60171 16.5322C7.60171 9.74144 13.0317 4.23643 19.7299 4.23643C26.4282 4.23643 31.8582 9.74144 31.8582 16.5322Z" fill="#7CAB41"/>
</svg>
