<svg width="34" height="34" viewBox="0 0 34 34" fill="none" xmlns="http://www.w3.org/2000/svg">
<path d="M10.625 4.25H23.3807C26.8982 4.25 29.75 7.10175 29.75 10.6193V23.3821C29.75 26.8982 26.8982 29.75 23.3807 29.75H10.6193C7.10175 29.75 4.25 26.8982 4.25 23.3807V10.625C4.25 7.10458 7.10458 4.25 10.625 4.25V4.25Z" stroke="#1FAEE9" stroke-width="1.5" stroke-linecap="round" stroke-linejoin="round"/>
<path d="M8.85449 21.7458C8.88141 21.7416 11.4045 20.8958 11.4045 20.8958C8.56549 18.0257 8.35016 13.7742 10.5545 10.6958C11.6 12.6409 13.5522 14.4344 15.6545 14.9458C15.7352 12.4907 17.4012 10.6958 19.9045 10.6958C21.6087 10.6958 22.6117 11.3461 23.3045 12.3958H25.8545L24.1545 14.9458" stroke="#1FAEE9" stroke-width="1.5" stroke-linecap="round" stroke-linejoin="round"/>
</svg>
