<svg width="219" height="40" viewBox="0 0 219 40" fill="none" xmlns="http://www.w3.org/2000/svg">
<path fill-rule="evenodd" clip-rule="evenodd" d="M19.7345 0C30.6336 0 39.4691 8.95431 39.4691 20C39.4691 31.0457 30.6336 40 19.7345 40C8.83545 40 0 31.0457 0 20C0 8.95431 8.83545 0 19.7345 0Z" fill="#D3DD12"/>
<path fill-rule="evenodd" clip-rule="evenodd" d="M0.0138781 20.7537C5.87012 21.7167 11.3286 23.8817 16.1349 26.991C17.3602 26.2795 18.6204 25.6228 19.9123 25.0241C14.1701 20.9216 7.47224 18.1009 0.224108 16.973C0.0765245 17.9591 0 18.9689 0 19.9968C0 20.2502 0.00465081 20.5026 0.0138781 20.7537Z" fill="#5F903B"/>
<path fill-rule="evenodd" clip-rule="evenodd" d="M16.1432 26.9863C11.3303 23.8809 5.86429 21.7185 0 20.7568C0.0453069 21.9874 0.200767 23.1896 0.456714 24.3536C4.91589 25.2059 9.11024 26.8154 12.9039 29.045C13.9535 28.3157 15.0341 27.6286 16.1432 26.9863Z" fill="#ACC833"/>
<path fill-rule="evenodd" clip-rule="evenodd" d="M12.9071 29.0505C9.11403 26.8215 4.92039 25.2124 0.461914 24.3604C0.728323 25.5717 1.10359 26.7416 1.57684 27.859C4.59209 28.589 7.46131 29.6986 10.1323 31.1351C11.0306 30.4067 11.9561 29.7113 12.9071 29.0505Z" fill="#5F903B"/>
<path fill-rule="evenodd" clip-rule="evenodd" d="M10.1335 31.1373C7.46919 29.6984 4.60722 28.587 1.59961 27.8559C2.68925 30.4395 4.29958 32.7431 6.29664 34.6306C7.51065 33.3963 8.79159 32.2298 10.1335 31.1373Z" fill="#ACC833"/>
<path fill-rule="evenodd" clip-rule="evenodd" d="M9.77398 37.2613C17.2927 29.8574 27.5203 25.259 38.8082 25.135C39.102 24.0117 39.3014 22.8495 39.3978 21.6578C39.3573 21.6577 39.3171 21.6577 39.2765 21.6577C26.6468 21.6577 15.2122 26.8391 6.93359 35.2171C7.8166 35.9794 8.76681 36.6641 9.77398 37.2613Z" fill="#5F903B"/>
<path fill-rule="evenodd" clip-rule="evenodd" d="M38.829 25.1171C27.5347 25.2413 17.3013 29.8492 9.77832 37.2685C10.895 37.9312 12.0817 38.4861 13.3244 38.9189C19.7709 33.0057 28.1891 29.2617 37.4593 28.8225C38.0307 27.6477 38.4919 26.408 38.829 25.1171Z" fill="#ACC833"/>
<path fill-rule="evenodd" clip-rule="evenodd" d="M37.4421 28.8288C28.1821 29.2672 19.7732 33.0037 13.334 38.9052C14.4174 39.2822 15.5435 39.5661 16.703 39.7478C21.9821 35.4095 28.502 32.5604 35.6397 31.8318C36.3235 30.8904 36.9276 29.886 37.4421 28.8288Z" fill="#5F903B"/>
<path fill-rule="evenodd" clip-rule="evenodd" d="M35.629 31.8559C28.4855 32.5838 21.9602 35.4302 16.6768 39.7643C17.6684 39.9196 18.6844 40 19.719 40C20.6155 40 21.4979 39.9395 22.3627 39.8223C25.1995 38.076 28.3212 36.7557 31.6407 35.9494C33.1565 34.7861 34.5009 33.4065 35.629 31.8559Z" fill="#ACC833"/>
<path fill-rule="evenodd" clip-rule="evenodd" d="M31.6468 35.9279C28.3263 36.738 25.2038 38.0649 22.3662 39.8198C25.823 39.3499 28.9967 37.9712 31.6468 35.9279Z" fill="#5F903B"/>
<path fill-rule="evenodd" clip-rule="evenodd" d="M24.4282 16.5225C24.4282 13.9054 22.3269 11.7838 19.7346 11.7838C17.1424 11.7838 15.041 13.9054 15.041 16.5225C15.041 19.1397 17.1424 21.2613 19.7346 21.2613C22.3269 21.2613 24.4282 19.1397 24.4282 16.5225Z" fill="#FAD703"/>
<path fill-rule="evenodd" clip-rule="evenodd" d="M24.4149 16.5225C24.4149 19.1482 22.3193 21.2767 19.7341 21.2767C17.149 21.2767 15.0533 19.1482 15.0533 16.5225C15.0533 13.8969 17.149 11.7684 19.7341 11.7684C22.3193 11.7684 24.4149 13.8969 24.4149 16.5225ZM12.8422 20.861C15.1821 21.9734 17.4159 23.2777 19.5238 24.754C19.5937 24.7559 19.6638 24.7568 19.7341 24.7568C24.2116 24.7568 27.8413 21.0702 27.8413 16.5225C27.8413 11.9749 24.2116 8.28829 19.7341 8.28829C15.2566 8.28829 11.627 11.9749 11.627 16.5225C11.627 18.1146 12.0719 19.6012 12.8422 20.861Z" fill="#CBDC58"/>
<path fill-rule="evenodd" clip-rule="evenodd" d="M27.8565 16.5182C27.8565 21.0687 24.2214 24.7576 19.7371 24.7576C19.6667 24.7576 19.5965 24.7567 19.5265 24.7549C19.6589 24.8475 19.7908 24.9408 19.9222 25.0348C18.63 25.6342 17.3695 26.2919 16.144 27.0043C15.7099 27.2567 15.2802 27.5159 14.855 27.7819C14.1952 28.1947 13.5461 28.6238 12.9086 29.0685C11.9586 29.7312 11.034 30.4287 10.1366 31.1592C8.79269 32.2532 7.50981 33.4212 6.29395 34.657C6.50573 34.8571 6.72185 35.0526 6.94216 35.2432C9.61326 32.5339 12.6129 30.1582 15.8753 28.1828C20.2638 25.5257 25.1276 23.593 30.3065 22.5477C31.2956 20.7659 31.8599 18.709 31.8599 16.5182C31.8599 9.72403 26.4324 4.21621 19.7371 4.21621C13.0419 4.21621 7.61435 9.72403 7.61435 16.5182C7.61435 17.3094 7.68795 18.0832 7.82858 18.8328C9.54381 19.4122 11.2147 20.0899 12.8349 20.8594C12.0633 19.5988 11.6178 18.1113 11.6178 16.5182C11.6178 11.9677 15.2529 8.27884 19.7371 8.27884C24.2214 8.27884 27.8565 11.9677 27.8565 16.5182Z" fill="#A0C93C"/>
<path fill-rule="evenodd" clip-rule="evenodd" d="M31.8578 16.5322C31.8578 18.7218 31.2933 20.7778 30.3037 22.5586C33.2069 21.9731 36.2089 21.6661 39.2818 21.6661C39.3224 21.6661 39.3629 21.6661 39.4031 21.6662C39.4472 21.1209 39.4696 20.5694 39.4696 20.0126C39.4696 8.95996 30.6317 0 19.7296 0C9.84229 0 1.65277 7.36959 0.213867 16.9862C2.82554 17.3927 5.36579 18.0189 7.81575 18.8456C7.67501 18.0964 7.60138 17.323 7.60138 16.5322C7.60138 9.74144 13.0314 4.23643 19.7296 4.23643C26.4278 4.23643 31.8578 9.74144 31.8578 16.5322Z" fill="#7CAB41"/>
<path d="M52.5961 25.2938C52.5961 24.678 52.3653 24.2017 51.9034 23.8651C51.4497 23.5202 50.6518 23.2246 49.5093 22.9782C48.375 22.7319 47.4715 22.4363 46.7991 22.0914C46.1346 21.7466 45.6403 21.336 45.3164 20.8597C45.0003 20.3835 44.8424 19.8169 44.8424 19.16C44.8424 18.0679 45.2961 17.1441 46.2035 16.3887C47.1191 15.6332 48.2858 15.2555 49.7038 15.2555C51.1944 15.2555 52.4016 15.6455 53.3254 16.4256C54.2574 17.2057 54.7232 18.2034 54.7232 19.4186H52.4624C52.4624 18.7946 52.1993 18.2567 51.6727 17.8051C51.1539 17.3535 50.4978 17.1277 49.7038 17.1277C48.8853 17.1277 48.2453 17.3083 47.7834 17.6696C47.3215 18.0309 47.0907 18.5031 47.0907 19.0861C47.0907 19.6363 47.3055 20.0509 47.7346 20.3301C48.1642 20.6093 48.9379 20.8761 50.0562 21.1307C51.1823 21.3853 52.094 21.6891 52.7906 22.0422C53.4875 22.3952 54.0021 22.8222 54.3342 23.3231C54.6744 23.8158 54.8448 24.4194 54.8448 25.1337C54.8448 26.3244 54.3747 27.281 53.4349 28.0036C52.4951 28.718 51.2755 29.0752 49.7767 29.0752C48.7232 29.0752 47.7915 28.8863 46.9812 28.5086C46.1712 28.1309 45.535 27.6053 45.0732 26.932C44.6194 26.2505 44.3926 25.5156 44.3926 24.7273H46.6409C46.6814 25.4909 46.9812 26.0986 47.5405 26.5502C48.1076 26.9936 48.8529 27.2153 49.7767 27.2153C50.6273 27.2153 51.3078 27.0429 51.8185 26.698C52.3369 26.3449 52.5961 25.8769 52.5961 25.2938ZM60.022 17.1154C61.0187 15.8755 62.3151 15.2555 63.9113 15.2555C66.6901 15.2555 68.0918 16.8444 68.1163 20.0222V28.8288H65.868V20.0098C65.8598 19.0491 65.6412 18.3388 65.2116 17.879C64.7903 17.4192 64.13 17.1893 63.2307 17.1893C62.5014 17.1893 61.8614 17.3863 61.3102 17.7805C60.7594 18.1746 60.3299 18.6919 60.022 19.3324V28.8288H57.7737V9.90991H60.022V17.1154ZM79.6015 28.8288C79.4717 28.5661 79.3664 28.098 79.2854 27.4247C78.2403 28.525 76.9922 29.0752 75.5422 29.0752C74.2458 29.0752 73.1801 28.7057 72.3456 27.9666C71.5192 27.2194 71.106 26.2751 71.106 25.1337C71.106 23.746 71.6245 22.6703 72.6617 21.9067C73.7067 21.1348 75.1735 20.7489 77.0612 20.7489H79.2487V19.7019C79.2487 18.9054 79.0141 18.2732 78.544 17.8051C78.0739 17.3289 77.3812 17.0907 76.4656 17.0907C75.6635 17.0907 74.9911 17.296 74.4481 17.7066C73.9055 18.1172 73.6338 18.6139 73.6338 19.1969H71.3734C71.3734 18.5318 71.6042 17.8913 72.0661 17.2755C72.5362 16.6514 73.168 16.1587 73.962 15.7974C74.7642 15.4361 75.6432 15.2555 76.5993 15.2555C78.1144 15.2555 79.3017 15.6414 80.1604 16.4133C81.0192 17.1769 81.465 18.2321 81.4974 19.5788V25.7126C81.4974 26.9361 81.6514 27.9092 81.9589 28.6318V28.8288H79.6015ZM75.87 27.0921C76.5752 27.0921 77.2436 26.9074 77.8755 26.5379C78.5074 26.1684 78.9653 25.688 79.2487 25.0968V22.3624H77.4865C74.7318 22.3624 73.3543 23.1794 73.3543 24.8135C73.3543 25.5279 73.5894 26.0862 74.0594 26.4886C74.5292 26.891 75.1329 27.0921 75.87 27.0921ZM91.3782 17.5465C91.0379 17.489 90.6692 17.4602 90.272 17.4602C88.7974 17.4602 87.7968 18.0966 87.2702 19.3694V28.8288H85.0219V15.5018H87.2094L87.246 17.0414C87.9831 15.8508 89.0285 15.2555 90.3815 15.2555C90.8189 15.2555 91.1513 15.313 91.3782 15.4279V17.5465ZM101.575 27.5109C100.7 28.5538 99.4157 29.0752 97.7224 29.0752C96.3204 29.0752 95.2511 28.6646 94.5137 27.8435C93.7844 27.0141 93.416 25.7906 93.4078 24.173V15.5018H95.6561V24.1114C95.6561 26.1314 96.4665 27.1414 98.0869 27.1414C99.8047 27.1414 100.947 26.4927 101.514 25.1953V15.5018H103.763V28.8288H101.623L101.575 27.5109ZM115.309 28.8288C115.179 28.5661 115.073 28.098 114.992 27.4247C113.947 28.525 112.699 29.0752 111.249 29.0752C109.953 29.0752 108.887 28.7057 108.053 27.9666C107.226 27.2194 106.813 26.2751 106.813 25.1337C106.813 23.746 107.332 22.6703 108.369 21.9067C109.414 21.1348 110.881 20.7489 112.768 20.7489H114.956V19.7019C114.956 18.9054 114.721 18.2732 114.251 17.8051C113.781 17.3289 113.088 17.0907 112.173 17.0907C111.371 17.0907 110.698 17.296 110.155 17.7066C109.613 18.1172 109.341 18.6139 109.341 19.1969H107.08C107.08 18.5318 107.311 17.8913 107.773 17.2755C108.243 16.6514 108.875 16.1587 109.669 15.7974C110.471 15.4361 111.35 15.2555 112.306 15.2555C113.822 15.2555 115.008 15.6414 115.868 16.4133C116.726 17.1769 117.172 18.2321 117.204 19.5788V25.7126C117.204 26.9361 117.358 27.9092 117.666 28.6318V28.8288H115.309ZM111.577 27.0921C112.282 27.0921 112.951 26.9074 113.583 26.5379C114.214 26.1684 114.672 25.688 114.956 25.0968V22.3624H113.194C110.439 22.3624 109.061 23.1794 109.061 24.8135C109.061 25.5279 109.296 26.0862 109.767 26.4886C110.236 26.891 110.84 27.0921 111.577 27.0921ZM128.386 25.2938C128.386 24.678 128.154 24.2017 127.693 23.8651C127.239 23.5202 126.441 23.2246 125.298 22.9782C124.164 22.7319 123.261 22.4363 122.588 22.0914C121.924 21.7466 121.43 21.336 121.105 20.8597C120.79 20.3835 120.632 19.8169 120.632 19.16C120.632 18.0679 121.085 17.1441 121.993 16.3887C122.908 15.6332 124.075 15.2555 125.493 15.2555C126.984 15.2555 128.191 15.6455 129.115 16.4256C130.046 17.2057 130.512 18.2034 130.512 19.4186H128.252C128.252 18.7946 127.988 18.2567 127.462 17.8051C126.943 17.3535 126.287 17.1277 125.493 17.1277C124.675 17.1277 124.035 17.3083 123.573 17.6696C123.111 18.0309 122.88 18.5031 122.88 19.0861C122.88 19.6363 123.095 20.0509 123.524 20.3301C123.954 20.6093 124.727 20.8761 125.845 21.1307C126.972 21.3853 127.883 21.6891 128.58 22.0422C129.277 22.3952 129.791 22.8222 130.124 23.3231C130.464 23.8158 130.634 24.4194 130.634 25.1337C130.634 26.3244 130.164 27.281 129.224 28.0036C128.284 28.718 127.065 29.0752 125.566 29.0752C124.513 29.0752 123.581 28.8863 122.771 28.5086C121.96 28.1309 121.324 27.6053 120.863 26.932C120.409 26.2505 120.182 25.5156 120.182 24.7273H122.43C122.471 25.4909 122.771 26.0986 123.33 26.5502C123.897 26.9936 124.642 27.2153 125.566 27.2153C126.417 27.2153 127.097 27.0429 127.608 26.698C128.126 26.3449 128.386 25.8769 128.386 25.2938ZM135.811 17.1154C136.808 15.8755 138.104 15.2555 139.7 15.2555C142.48 15.2555 143.881 16.8444 143.905 20.0222V28.8288H141.657V20.0098C141.649 19.0491 141.43 18.3388 141.001 17.879C140.58 17.4192 139.919 17.1893 139.02 17.1893C138.291 17.1893 137.651 17.3863 137.1 17.7805C136.549 18.1746 136.119 18.6919 135.811 19.3324V28.8288H133.563V9.90991H135.811V17.1154ZM151.575 25.4909L154.637 15.5018H157.044L151.757 30.8858C150.938 33.1028 149.638 34.2114 147.856 34.2114L147.43 34.1744L146.591 34.0143V32.1667L147.199 32.216C147.961 32.216 148.552 32.06 148.973 31.748C149.403 31.4359 149.755 30.8652 150.031 30.0359L150.529 28.681L145.838 15.5018H148.293L151.575 25.4909ZM161.504 28.8288H159.255V9.90991H161.504V28.8288ZM169.416 25.4909L172.479 15.5018H174.885L169.598 30.8858C168.78 33.1028 167.48 34.2114 165.697 34.2114L165.271 34.1744L164.433 34.0143V32.1667L165.041 32.216C165.802 32.216 166.394 32.06 166.815 31.748C167.244 31.4359 167.597 30.8652 167.872 30.0359L168.371 28.681L163.679 15.5018H166.134L169.416 25.4909ZM176.185 22.0545C176.185 19.9606 176.659 18.306 177.607 17.0907C178.555 15.8672 179.827 15.2555 181.423 15.2555C182.979 15.2555 184.207 15.7851 185.106 16.8444L185.203 15.5018H187.269V33.9527H185.021V27.5971C184.113 28.5825 182.906 29.0752 181.399 29.0752C179.811 29.0752 178.543 28.4511 177.595 27.203C176.655 25.9467 176.185 24.2839 176.185 22.2146V22.0545ZM178.434 22.3131C178.434 23.8404 178.75 25.0393 179.382 25.9097C180.022 26.7801 180.881 27.2153 181.958 27.2153C183.295 27.2153 184.316 26.6159 185.021 25.417V18.889C184.308 17.7148 183.295 17.1277 181.982 17.1277C180.897 17.1277 180.034 17.567 179.394 18.4456C178.754 19.316 178.434 20.6052 178.434 22.3131Z" fill="black"/>
<path d="M193.979 27.3786C193.979 27.8631 193.817 28.2901 193.493 28.6596C193.177 29.0291 192.735 29.2138 192.168 29.2138C191.69 29.2138 191.317 29.0537 191.05 28.7335C190.791 28.4132 190.661 28.0314 190.661 27.588C190.661 27.1117 190.823 26.697 191.147 26.344C191.471 25.9827 191.921 25.802 192.496 25.802C192.974 25.802 193.339 25.9539 193.59 26.2577C193.849 26.5615 193.979 26.9352 193.979 27.3786ZM207.493 29.1892H204.637C204.637 28.9018 203.852 27.8056 202.28 25.9005C200.667 23.9381 199.655 22.9568 199.241 22.9568H199.156C199.156 24.714 199.201 26.7915 199.29 29.1892H197.151C197.256 26.1839 197.309 23.121 197.309 20.0007C197.309 16.8229 197.191 14.1091 196.957 11.8592L199.29 11.736C199.201 13.5097 199.156 16.9543 199.156 22.0699H199.241C199.509 22.0699 200.347 21.3802 201.757 20.0007C203.175 18.613 203.884 17.7754 203.884 17.488H206.57C206.57 17.7508 205.934 18.4323 204.662 19.5326C203.471 20.5591 202.381 21.4048 201.392 22.0699V22.1685C202.397 22.9404 203.689 24.2624 205.27 26.1346C206.752 27.9 207.493 28.9182 207.493 29.1892ZM217.763 27.2062L217.69 29.1892H208.83L208.928 27.28C209.357 26.8613 210.455 25.5639 212.221 23.3879C214.142 21.0148 215.102 19.6846 215.102 19.3972L215.09 19.2617C212.489 19.2617 210.427 19.3151 208.903 19.4218L208.976 17.488H217.411L217.289 19.4218C216.617 20.169 215.552 21.4746 214.093 23.3386C212.278 25.6624 211.371 26.9844 211.371 27.3047V27.4032C213.817 27.4032 215.948 27.3375 217.763 27.2062Z" fill="black"/>
</svg>
