<svg width="219" height="40" viewBox="0 0 219 40" fill="none" xmlns="http://www.w3.org/2000/svg">
<path fill-rule="evenodd" clip-rule="evenodd" d="M19.7345 0C30.6336 0 39.4691 8.95431 39.4691 20C39.4691 31.0457 30.6336 40 19.7345 40C8.83545 40 0 31.0457 0 20C0 8.95431 8.83545 0 19.7345 0Z" fill="#D3DD12"/>
<path fill-rule="evenodd" clip-rule="evenodd" d="M0.0138781 20.7537C5.87012 21.7166 11.3286 23.8817 16.1349 26.9909C17.3602 26.2794 18.6204 25.6227 19.9123 25.0241C14.1701 20.9215 7.47224 18.1009 0.224108 16.9729C0.0765245 17.959 0 18.9688 0 19.9967C0 20.2502 0.00465081 20.5025 0.0138781 20.7537Z" fill="#5F903B"/>
<path fill-rule="evenodd" clip-rule="evenodd" d="M16.1432 26.9863C11.3303 23.881 5.86429 21.7186 0 20.7568C0.0453069 21.9875 0.200767 23.1897 0.456714 24.3537C4.91589 25.206 9.11024 26.8155 12.9039 29.0451C13.9535 28.3158 15.0341 27.6287 16.1432 26.9863Z" fill="#ACC833"/>
<path fill-rule="evenodd" clip-rule="evenodd" d="M12.9075 29.0505C9.11437 26.8215 4.92073 25.2124 0.46225 24.3604C0.728659 25.5717 1.10393 26.7416 1.57717 27.859C4.59242 28.589 7.46165 29.6986 10.1326 31.1351C11.0309 30.4067 11.9565 29.7113 12.9075 29.0505Z" fill="#5F903B"/>
<path fill-rule="evenodd" clip-rule="evenodd" d="M10.1339 31.1374C7.46967 29.6985 4.6077 28.5871 1.60008 27.856C2.68973 30.4396 4.30005 32.7432 6.29712 34.6307C7.51113 33.3964 8.79206 32.2299 10.1339 31.1374Z" fill="#ACC833"/>
<path fill-rule="evenodd" clip-rule="evenodd" d="M9.77416 37.2613C17.2929 29.8575 27.5205 25.259 38.8084 25.135C39.1021 24.0117 39.3016 22.8496 39.398 21.6579C39.3574 21.6578 39.3173 21.6577 39.2767 21.6577C26.6469 21.6577 15.2124 26.8392 6.93378 35.2171C7.81678 35.9794 8.76699 36.6642 9.77416 37.2613Z" fill="#5F903B"/>
<path fill-rule="evenodd" clip-rule="evenodd" d="M38.829 25.1172C27.5348 25.2414 17.3014 29.8493 9.77838 37.2685C10.8951 37.9312 12.0818 38.4862 13.3245 38.919C19.7709 33.0057 28.1892 29.2617 37.4594 28.8225C38.0308 27.6478 38.492 26.4081 38.829 25.1172Z" fill="#ACC833"/>
<path fill-rule="evenodd" clip-rule="evenodd" d="M37.4423 28.8289C28.1823 29.2672 19.7734 33.0037 13.3342 38.9053C14.4176 39.2822 15.5437 39.5662 16.7031 39.7478C21.9823 35.4095 28.5022 32.5605 35.6399 31.8318C36.3236 30.8904 36.9278 29.886 37.4423 28.8289Z" fill="#5F903B"/>
<path fill-rule="evenodd" clip-rule="evenodd" d="M35.6289 31.856C28.4854 32.5839 21.9601 35.4303 16.6766 39.7644C17.6682 39.9197 18.6843 40.0001 19.7189 40.0001C20.6153 40.0001 21.4978 39.9396 22.3625 39.8224C25.1993 38.0761 28.321 36.7558 31.6406 35.9495C33.1563 34.7862 34.5008 33.4066 35.6289 31.856Z" fill="#ACC833"/>
<path fill-rule="evenodd" clip-rule="evenodd" d="M31.6464 35.928C28.3259 36.7381 25.2034 38.0649 22.3658 39.8199C25.8226 39.35 28.9963 37.9712 31.6464 35.928Z" fill="#5F903B"/>
<path fill-rule="evenodd" clip-rule="evenodd" d="M24.4282 16.5224C24.4282 13.9053 22.3268 11.7837 19.7345 11.7837C17.1423 11.7837 15.0409 13.9053 15.0409 16.5224C15.0409 19.1396 17.1423 21.2612 19.7345 21.2612C22.3268 21.2612 24.4282 19.1396 24.4282 16.5224Z" fill="#FAD703"/>
<path fill-rule="evenodd" clip-rule="evenodd" d="M24.4154 16.5226C24.4154 19.1482 22.3197 21.2767 19.7346 21.2767C17.1494 21.2767 15.0538 19.1482 15.0538 16.5226C15.0538 13.8969 17.1494 11.7684 19.7346 11.7684C22.3197 11.7684 24.4154 13.8969 24.4154 16.5226ZM12.8427 20.861C15.1825 21.9734 17.4163 23.2777 19.5243 24.7541C19.5942 24.7559 19.6643 24.7568 19.7346 24.7568C24.212 24.7568 27.8417 21.0702 27.8417 16.5226C27.8417 11.9749 24.212 8.28833 19.7346 8.28833C15.2571 8.28833 11.6274 11.9749 11.6274 16.5226C11.6274 18.1147 12.0723 19.6013 12.8427 20.861Z" fill="#CBDC58"/>
<path fill-rule="evenodd" clip-rule="evenodd" d="M27.8563 16.5183C27.8563 21.0688 24.2211 24.7577 19.7369 24.7577C19.6665 24.7577 19.5963 24.7568 19.5263 24.755C19.6587 24.8476 19.7905 24.9409 19.9219 25.0349C18.6297 25.6343 17.3693 26.2919 16.1438 27.0044C15.7097 27.2568 15.28 27.516 14.8548 27.782C14.1949 28.1948 13.5459 28.6239 12.9083 29.0686C11.9583 29.7313 11.0337 30.4288 10.1363 31.1593C8.79245 32.2533 7.50956 33.4212 6.2937 34.6571C6.50548 34.8572 6.7216 35.0527 6.94192 35.2433C9.61301 32.534 12.6127 30.1583 15.8751 28.1829C20.2635 25.5258 25.1274 23.5931 30.3063 22.5478C31.2954 20.766 31.8597 18.7091 31.8597 16.5183C31.8597 9.72413 26.4321 4.21631 19.7369 4.21631C13.0417 4.21631 7.6141 9.72413 7.6141 16.5183C7.6141 17.3095 7.68771 18.0833 7.82834 18.8329C9.54357 19.4123 11.2145 20.09 12.8347 20.8595C12.0631 19.5989 11.6175 18.1114 11.6175 16.5183C11.6175 11.9678 15.2527 8.27894 19.7369 8.27894C24.2211 8.27894 27.8563 11.9678 27.8563 16.5183Z" fill="#A0C93C"/>
<path fill-rule="evenodd" clip-rule="evenodd" d="M31.8582 16.5322C31.8582 18.7218 31.2936 20.7778 30.304 22.5586C33.2072 21.9731 36.2093 21.6661 39.2822 21.6661C39.3227 21.6661 39.3633 21.6661 39.4034 21.6662C39.4475 21.1209 39.4699 20.5694 39.4699 20.0126C39.4699 8.95996 30.6321 0 19.7299 0C9.84263 0 1.65311 7.36959 0.214203 16.9862C2.82588 17.3927 5.36613 18.0189 7.81609 18.8456C7.67535 18.0964 7.60171 17.323 7.60171 16.5322C7.60171 9.74144 13.0317 4.23643 19.7299 4.23643C26.4282 4.23643 31.8582 9.74144 31.8582 16.5322Z" fill="#7CAB41"/>
<path d="M52.5963 25.2938C52.5963 24.678 52.3655 24.2017 51.9036 23.8651C51.4499 23.5202 50.652 23.2246 49.5095 22.9782C48.3752 22.7319 47.4717 22.4363 46.7993 22.0914C46.1347 21.7466 45.6405 21.336 45.3165 20.8597C45.0004 20.3835 44.8426 19.8169 44.8426 19.16C44.8426 18.0679 45.2963 17.1441 46.2037 16.3887C47.1193 15.6332 48.286 15.2555 49.704 15.2555C51.1946 15.2555 52.4018 15.6455 53.3256 16.4256C54.2575 17.2057 54.7233 18.2034 54.7233 19.4186H52.4626C52.4626 18.7946 52.1994 18.2567 51.6728 17.8051C51.154 17.3535 50.498 17.1277 49.704 17.1277C48.8855 17.1277 48.2454 17.3083 47.7835 17.6696C47.3216 18.0309 47.0909 18.5031 47.0909 19.0861C47.0909 19.6363 47.3056 20.0509 47.7348 20.3301C48.1644 20.6093 48.9381 20.8761 50.0564 21.1307C51.1825 21.3853 52.0942 21.6891 52.7908 22.0422C53.4877 22.3952 54.0022 22.8222 54.3343 23.3231C54.6746 23.8158 54.8449 24.4194 54.8449 25.1337C54.8449 26.3244 54.3749 27.281 53.4351 28.0036C52.4953 28.718 51.2757 29.0752 49.7769 29.0752C48.7233 29.0752 47.7917 28.8863 46.9813 28.5086C46.1713 28.1309 45.5352 27.6053 45.0733 26.932C44.6196 26.2505 44.3927 25.5156 44.3927 24.7273H46.6411C46.6816 25.4909 46.9813 26.0986 47.5407 26.5502C48.1078 26.9936 48.8531 27.2153 49.7769 27.2153C50.6274 27.2153 51.308 27.0429 51.8186 26.698C52.3371 26.3449 52.5963 25.8769 52.5963 25.2938ZM60.0221 17.1154C61.0188 15.8755 62.3153 15.2555 63.9114 15.2555C66.6903 15.2555 68.092 16.8444 68.1165 20.0222V28.8288H65.8682V20.0098C65.86 19.0491 65.6413 18.3388 65.2118 17.879C64.7904 17.4192 64.1301 17.1893 63.2309 17.1893C62.5016 17.1893 61.8615 17.3863 61.3104 17.7805C60.7596 18.1746 60.3301 18.6919 60.0221 19.3324V28.8288H57.7738V9.90991H60.0221V17.1154ZM79.6016 28.8288C79.4719 28.5661 79.3666 28.098 79.2855 27.4247C78.2405 28.525 76.9924 29.0752 75.5424 29.0752C74.2459 29.0752 73.1803 28.7057 72.3457 27.9666C71.5194 27.2194 71.1062 26.2751 71.1062 25.1337C71.1062 23.746 71.6246 22.6703 72.6618 21.9067C73.7069 21.1348 75.1736 20.7489 77.0614 20.7489H79.2489V19.7019C79.2489 18.9054 79.0142 18.2732 78.5442 17.8051C78.0741 17.3289 77.3814 17.0907 76.4658 17.0907C75.6636 17.0907 74.9912 17.296 74.4483 17.7066C73.9056 18.1172 73.634 18.6139 73.634 19.1969H71.3736C71.3736 18.5318 71.6044 17.8913 72.0662 17.2755C72.5363 16.6514 73.1682 16.1587 73.9622 15.7974C74.7644 15.4361 75.6434 15.2555 76.5995 15.2555C78.1146 15.2555 79.3019 15.6414 80.1606 16.4133C81.0193 17.1769 81.4652 18.2321 81.4976 19.5788V25.7126C81.4976 26.9361 81.6515 27.9092 81.9591 28.6318V28.8288H79.6016ZM75.8702 27.0921C76.5753 27.0921 77.2438 26.9074 77.8757 26.5379C78.5075 26.1684 78.9655 25.688 79.2489 25.0968V22.3624H77.4867C74.732 22.3624 73.3545 23.1794 73.3545 24.8135C73.3545 25.5279 73.5895 26.0862 74.0596 26.4886C74.5293 26.891 75.1331 27.0921 75.8702 27.0921ZM91.3784 17.5465C91.0381 17.489 90.6693 17.4602 90.2722 17.4602C88.7976 17.4602 87.797 18.0966 87.2704 19.3694V28.8288H85.0221V15.5018H87.2096L87.2462 17.0414C87.9833 15.8508 89.0287 15.2555 90.3817 15.2555C90.819 15.2555 91.1515 15.313 91.3784 15.4279V17.5465ZM101.575 27.5109C100.7 28.5538 99.4158 29.0752 97.7226 29.0752C96.3205 29.0752 95.2513 28.6646 94.5138 27.8435C93.7845 27.0141 93.4162 25.7906 93.408 24.173V15.5018H95.6563V24.1114C95.6563 26.1314 96.4667 27.1414 98.087 27.1414C99.8048 27.1414 100.947 26.4927 101.514 25.1953V15.5018H103.763V28.8288H101.624L101.575 27.5109ZM115.309 28.8288C115.179 28.5661 115.074 28.098 114.993 27.4247C113.947 28.525 112.699 29.0752 111.249 29.0752C109.953 29.0752 108.887 28.7057 108.053 27.9666C107.226 27.2194 106.813 26.2751 106.813 25.1337C106.813 23.746 107.332 22.6703 108.369 21.9067C109.414 21.1348 110.881 20.7489 112.768 20.7489H114.956V19.7019C114.956 18.9054 114.721 18.2732 114.251 17.8051C113.781 17.3289 113.088 17.0907 112.173 17.0907C111.371 17.0907 110.698 17.296 110.155 17.7066C109.613 18.1172 109.341 18.6139 109.341 19.1969H107.081C107.081 18.5318 107.311 17.8913 107.773 17.2755C108.243 16.6514 108.875 16.1587 109.669 15.7974C110.471 15.4361 111.35 15.2555 112.307 15.2555C113.822 15.2555 115.009 15.6414 115.868 16.4133C116.726 17.1769 117.172 18.2321 117.205 19.5788V25.7126C117.205 26.9361 117.359 27.9092 117.666 28.6318V28.8288H115.309ZM111.577 27.0921C112.282 27.0921 112.951 26.9074 113.583 26.5379C114.215 26.1684 114.673 25.688 114.956 25.0968V22.3624H113.194C110.439 22.3624 109.062 23.1794 109.062 24.8135C109.062 25.5279 109.297 26.0862 109.767 26.4886C110.236 26.891 110.84 27.0921 111.577 27.0921ZM128.386 25.2938C128.386 24.678 128.155 24.2017 127.693 23.8651C127.239 23.5202 126.441 23.2246 125.299 22.9782C124.164 22.7319 123.261 22.4363 122.588 22.0914C121.924 21.7466 121.43 21.336 121.106 20.8597C120.79 20.3835 120.632 19.8169 120.632 19.16C120.632 18.0679 121.085 17.1441 121.993 16.3887C122.908 15.6332 124.075 15.2555 125.493 15.2555C126.984 15.2555 128.191 15.6455 129.115 16.4256C130.047 17.2057 130.512 18.2034 130.512 19.4186H128.252C128.252 18.7946 127.989 18.2567 127.462 17.8051C126.944 17.3535 126.287 17.1277 125.493 17.1277C124.675 17.1277 124.035 17.3083 123.573 17.6696C123.111 18.0309 122.88 18.5031 122.88 19.0861C122.88 19.6363 123.095 20.0509 123.524 20.3301C123.954 20.6093 124.728 20.8761 125.846 21.1307C126.972 21.3853 127.883 21.6891 128.58 22.0422C129.277 22.3952 129.791 22.8222 130.124 23.3231C130.464 23.8158 130.634 24.4194 130.634 25.1337C130.634 26.3244 130.164 27.281 129.224 28.0036C128.284 28.718 127.065 29.0752 125.566 29.0752C124.513 29.0752 123.581 28.8863 122.771 28.5086C121.96 28.1309 121.324 27.6053 120.863 26.932C120.409 26.2505 120.182 25.5156 120.182 24.7273H122.431C122.471 25.4909 122.771 26.0986 123.33 26.5502C123.897 26.9936 124.643 27.2153 125.566 27.2153C126.417 27.2153 127.097 27.0429 127.608 26.698C128.127 26.3449 128.386 25.8769 128.386 25.2938ZM135.812 17.1154C136.808 15.8755 138.104 15.2555 139.701 15.2555C142.48 15.2555 143.881 16.8444 143.906 20.0222V28.8288H141.657V20.0098C141.649 19.0491 141.43 18.3388 141.001 17.879C140.58 17.4192 139.919 17.1893 139.02 17.1893C138.291 17.1893 137.651 17.3863 137.1 17.7805C136.549 18.1746 136.12 18.6919 135.812 19.3324V28.8288H133.563V9.90991H135.812V17.1154ZM151.575 25.4909L154.637 15.5018H157.044L151.757 30.8858C150.939 33.1028 149.638 34.2114 147.856 34.2114L147.43 34.1744L146.592 34.0143V32.1667L147.199 32.216C147.961 32.216 148.552 32.06 148.974 31.748C149.403 31.4359 149.756 30.8652 150.031 30.0359L150.529 28.681L145.838 15.5018H148.293L151.575 25.4909ZM161.504 28.8288H159.256V9.90991H161.504V28.8288ZM169.416 25.4909L172.479 15.5018H174.885L169.598 30.8858C168.78 33.1028 167.48 34.2114 165.697 34.2114L165.272 34.1744L164.433 34.0143V32.1667L165.041 32.216C165.802 32.216 166.394 32.06 166.815 31.748C167.245 31.4359 167.597 30.8652 167.873 30.0359L168.371 28.681L163.68 15.5018H166.135L169.416 25.4909ZM176.186 22.0545C176.186 19.9606 176.66 18.306 177.608 17.0907C178.556 15.8672 179.827 15.2555 181.424 15.2555C182.979 15.2555 184.207 15.7851 185.106 16.8444L185.203 15.5018H187.269V33.9527H185.021V27.5971C184.114 28.5825 182.906 29.0752 181.399 29.0752C179.811 29.0752 178.543 28.4511 177.595 27.203C176.655 25.9467 176.186 24.2839 176.186 22.2146V22.0545ZM178.434 22.3131C178.434 23.8404 178.75 25.0393 179.382 25.9097C180.022 26.7801 180.881 27.2153 181.958 27.2153C183.295 27.2153 184.316 26.6159 185.021 25.417V18.889C184.308 17.7148 183.295 17.1277 181.983 17.1277C180.897 17.1277 180.034 17.567 179.394 18.4456C178.754 19.316 178.434 20.6052 178.434 22.3131Z" fill="black"/>
<path d="M193.979 27.3787C193.979 27.8631 193.817 28.2901 193.493 28.6597C193.177 29.0292 192.735 29.2139 192.168 29.2139C191.69 29.2139 191.317 29.0538 191.05 28.7336C190.791 28.4133 190.661 28.0315 190.661 27.5881C190.661 27.1118 190.823 26.6971 191.147 26.3441C191.471 25.9828 191.921 25.8021 192.496 25.8021C192.974 25.8021 193.339 25.954 193.59 26.2578C193.849 26.5616 193.979 26.9353 193.979 27.3787ZM207.494 29.1893H204.638C204.638 28.9019 203.852 27.8057 202.28 25.9006C200.667 23.9381 199.655 22.9569 199.241 22.9569H199.156C199.156 24.7141 199.201 26.7916 199.29 29.1893H197.151C197.256 26.1839 197.309 23.1211 197.309 20.0008C197.309 16.823 197.191 14.1092 196.957 11.8593L199.29 11.7361C199.201 13.5097 199.156 16.9544 199.156 22.07H199.241C199.509 22.07 200.347 21.3803 201.757 20.0008C203.175 18.6131 203.884 17.7755 203.884 17.4881H206.57C206.57 17.7509 205.934 18.4324 204.662 19.5327C203.471 20.5591 202.381 21.4049 201.393 22.07V22.1686C202.397 22.9404 203.69 24.2625 205.27 26.1346C206.752 27.9001 207.494 28.9183 207.494 29.1893ZM217.763 27.2062L217.69 29.1893H208.83L208.928 27.2801C209.357 26.8613 210.455 25.564 212.221 23.388C214.142 21.0149 215.102 19.6847 215.102 19.3972L215.09 19.2618C212.489 19.2618 210.427 19.3151 208.903 19.4219L208.976 17.4881H217.411L217.289 19.4219C216.617 20.1691 215.552 21.4747 214.093 23.3387C212.278 25.6625 211.371 26.9845 211.371 27.3048V27.4033C213.817 27.4033 215.948 27.3376 217.763 27.2062Z" fill="black"/>
</svg>
