<svg width="36" height="37" viewBox="0 0 36 37" fill="none" xmlns="http://www.w3.org/2000/svg">
<path d="M13.674 21.7805C8.343 22.4825 4.5 24.44 4.5 26.75C4.5 29.6495 10.5435 32 18 32C25.4565 32 31.5 29.6495 31.5 26.75C31.5 24.44 27.657 22.4825 22.326 21.7805" stroke="#323232" stroke-width="1.5" stroke-linecap="round" stroke-linejoin="round"/>
<path d="M27 12.2495C27 7.418 22.971 3.5 18 3.5C13.029 3.5 9 7.418 9 12.2495C9 18.812 18 26 18 26C18 26 27 18.812 27 12.2495Z" stroke="#323232" stroke-width="1.5" stroke-linecap="round" stroke-linejoin="round"/>
<path d="M20.1213 10.3787C21.2929 11.5503 21.2929 13.4497 20.1213 14.6213C18.9498 15.7929 17.0503 15.7929 15.8787 14.6213C14.7071 13.4498 14.7071 11.5503 15.8787 10.3787C17.0503 9.20711 18.9498 9.20711 20.1213 10.3787" stroke="#323232" stroke-width="1.5" stroke-linecap="round" stroke-linejoin="round"/>
</svg>
