<svg width="36" height="37" viewBox="0 0 36 37" fill="none" xmlns="http://www.w3.org/2000/svg">
<path d="M4.5 15.0545V29C4.5 30.6575 5.8425 32 7.5 32H28.4985C30.156 32 31.4985 30.6575 31.4985 29V15.0545" stroke="#323232" stroke-width="1.5" stroke-linecap="round" stroke-linejoin="round"/>
<path d="M5.82848 12.566L16.3195 5.50849C17.335 4.82599 18.6625 4.82599 19.678 5.50849L30.169 12.566C31.936 13.7555 31.936 16.355 30.169 17.5445L21.358 23.4725C19.327 24.839 16.672 24.839 14.641 23.4725L5.82998 17.5445C4.06148 16.355 4.06148 13.754 5.82848 12.566V12.566Z" stroke="#323232" stroke-width="1.5" stroke-linecap="round" stroke-linejoin="round"/>
<path d="M13.6798 22.82L5.38477 31.115" stroke="#323232" stroke-width="1.5" stroke-linecap="round" stroke-linejoin="round"/>
<path d="M30.6148 31.115L22.3198 22.82" stroke="#323232" stroke-width="1.5" stroke-linecap="round" stroke-linejoin="round"/>
<path d="M27 19.6775V12.0305C27 10.373 25.6575 9.03049 24 9.03049H12C10.3425 9.03049 9 10.373 9 12.0305V19.6775" stroke="#323232" stroke-width="1.5" stroke-linecap="round" stroke-linejoin="round"/>
<path d="M13.5 14H22.5" stroke="#323232" stroke-width="1.5" stroke-linecap="round" stroke-linejoin="round"/>
<path d="M14.25 18.5H21.75" stroke="#323232" stroke-width="1.5" stroke-linecap="round" stroke-linejoin="round"/>
</svg>
