<svg width="36" height="37" viewBox="0 0 36 37" fill="none" xmlns="http://www.w3.org/2000/svg">
<path d="M16.2842 20.216C14.5292 18.461 13.2062 16.496 12.3272 14.5025C12.1412 14.081 12.2507 13.5875 12.5762 13.262L13.8047 12.035C14.8112 11.0285 14.8112 9.60499 13.9322 8.72599L12.1712 6.96499C10.9997 5.79349 9.10072 5.79349 7.92922 6.96499L6.95122 7.94299C5.83972 9.05449 5.37622 10.658 5.67622 12.248C6.41722 16.1675 8.69422 20.459 12.3677 24.1325C16.0412 27.806 20.3327 30.083 24.2522 30.824C25.8422 31.124 27.4457 30.6605 28.5572 29.549L29.5337 28.5725C30.7052 27.401 30.7052 25.502 29.5337 24.3305L27.7742 22.571C26.8952 21.692 25.4702 21.692 24.5927 22.571L23.2382 23.927C22.9127 24.2525 22.4192 24.362 21.9977 24.176C20.0042 23.2955 18.0392 21.971 16.2842 20.216V20.216Z" stroke="#323232" stroke-width="1.5" stroke-linecap="round" stroke-linejoin="round"/>
</svg>
